<?xml version="1.0" encoding="UTF-8" standalone="no"?>
<!DOCTYPE svg PUBLIC "-//W3C//DTD SVG 1.1//EN"
 "http://www.w3.org/Graphics/SVG/1.1/DTD/svg11.dtd">
<!-- Generated by graphviz version 2.43.0 (0)
 -->
<!-- Title: MER Pages: 1 -->
<svg width="840pt" height="571pt"
 viewBox="0.00 0.00 840.00 570.50" xmlns="http://www.w3.org/2000/svg" xmlns:xlink="http://www.w3.org/1999/xlink">
<g id="graph0" class="graph" transform="scale(1 1) rotate(0) translate(4 566.5)">
<title>MER</title>
<polygon fill="white" stroke="transparent" points="-4,4 -4,-566.5 836,-566.5 836,4 -4,4"/>
<!-- departamentos -->
<g id="node1" class="node">
<title>departamentos</title>
<polygon fill="#1f4e79" stroke="transparent" points="8,-469.5 8,-490.5 206,-490.5 206,-469.5 8,-469.5"/>
<polygon fill="none" stroke="black" points="8,-469.5 8,-490.5 206,-490.5 206,-469.5 8,-469.5"/>
<text text-anchor="start" x="63.5" y="-478.5" font-family="Helvetica,sans-Serif" font-weight="bold" font-size="10.00" fill="white">departamentos</text>
<polygon fill="none" stroke="black" points="8,-448.5 8,-469.5 121,-469.5 121,-448.5 8,-448.5"/>
<text text-anchor="start" x="13" y="-457.5" font-family="Helvetica,sans-Serif" font-weight="bold" font-size="10.00">PK</text>
<text text-anchor="start" x="29" y="-457.5" font-family="Helvetica,sans-Serif" font-size="10.00"> id_departamento</text>
<polygon fill="none" stroke="black" points="121,-448.5 121,-469.5 206,-469.5 206,-448.5 121,-448.5"/>
<text text-anchor="start" x="126" y="-456.5" font-family="Helvetica,sans-Serif" font-size="10.00">INTEGER</text>
<polygon fill="none" stroke="black" points="8,-427.5 8,-448.5 121,-448.5 121,-427.5 8,-427.5"/>
<text text-anchor="start" x="13" y="-435.5" font-family="Helvetica,sans-Serif" font-size="10.00">nombre</text>
<polygon fill="none" stroke="black" points="121,-427.5 121,-448.5 206,-448.5 206,-427.5 121,-427.5"/>
<text text-anchor="start" x="126" y="-435.5" font-family="Helvetica,sans-Serif" font-size="10.00">TEXT (UNIQUE)</text>
<polygon fill="none" stroke="black" points="8,-406.5 8,-427.5 121,-427.5 121,-406.5 8,-406.5"/>
<text text-anchor="start" x="13" y="-414.5" font-family="Helvetica,sans-Serif" font-size="10.00">region_natural</text>
<polygon fill="none" stroke="black" points="121,-406.5 121,-427.5 206,-427.5 206,-406.5 121,-406.5"/>
<text text-anchor="start" x="126" y="-414.5" font-family="Helvetica,sans-Serif" font-size="10.00">TEXT</text>
<polygon fill="none" stroke="black" points="8,-385.5 8,-406.5 121,-406.5 121,-385.5 8,-385.5"/>
<text text-anchor="start" x="13" y="-393.5" font-family="Helvetica,sans-Serif" font-size="10.00">codigo_dane</text>
<polygon fill="none" stroke="black" points="121,-385.5 121,-406.5 206,-406.5 206,-385.5 121,-385.5"/>
<text text-anchor="start" x="126" y="-393.5" font-family="Helvetica,sans-Serif" font-size="10.00">TEXT (UNIQUE)</text>
</g>
<!-- municipios -->
<g id="node2" class="node">
<title>municipios</title>
<polygon fill="#1f4e79" stroke="transparent" points="316.5,-490.5 316.5,-511.5 513.5,-511.5 513.5,-490.5 316.5,-490.5"/>
<polygon fill="none" stroke="black" points="316.5,-490.5 316.5,-511.5 513.5,-511.5 513.5,-490.5 316.5,-490.5"/>
<text text-anchor="start" x="384" y="-499.5" font-family="Helvetica,sans-Serif" font-weight="bold" font-size="10.00" fill="white">municipios</text>
<polygon fill="none" stroke="black" points="316.5,-469.5 316.5,-490.5 428.5,-490.5 428.5,-469.5 316.5,-469.5"/>
<text text-anchor="start" x="321.5" y="-478.5" font-family="Helvetica,sans-Serif" font-weight="bold" font-size="10.00">PK</text>
<text text-anchor="start" x="337.5" y="-478.5" font-family="Helvetica,sans-Serif" font-size="10.00"> id_municipio</text>
<polygon fill="none" stroke="black" points="428.5,-469.5 428.5,-490.5 513.5,-490.5 513.5,-469.5 428.5,-469.5"/>
<text text-anchor="start" x="433.5" y="-477.5" font-family="Helvetica,sans-Serif" font-size="10.00">INTEGER</text>
<polygon fill="none" stroke="black" points="316.5,-448.5 316.5,-469.5 428.5,-469.5 428.5,-448.5 316.5,-448.5"/>
<text text-anchor="start" x="321.5" y="-456.5" font-family="Helvetica,sans-Serif" font-size="10.00">nombre</text>
<polygon fill="none" stroke="black" points="428.5,-448.5 428.5,-469.5 513.5,-469.5 513.5,-448.5 428.5,-448.5"/>
<text text-anchor="start" x="433.5" y="-456.5" font-family="Helvetica,sans-Serif" font-size="10.00">TEXT</text>
<polygon fill="none" stroke="black" points="316.5,-427.5 316.5,-448.5 428.5,-448.5 428.5,-427.5 316.5,-427.5"/>
<text text-anchor="start" x="321.5" y="-436.5" font-family="Helvetica,sans-Serif" font-weight="bold" font-size="10.00">FK</text>
<text text-anchor="start" x="336.5" y="-436.5" font-family="Helvetica,sans-Serif" font-size="10.00"> id_departamento</text>
<polygon fill="none" stroke="black" points="428.5,-427.5 428.5,-448.5 513.5,-448.5 513.5,-427.5 428.5,-427.5"/>
<text text-anchor="start" x="433.5" y="-435.5" font-family="Helvetica,sans-Serif" font-size="10.00">INTEGER</text>
<polygon fill="none" stroke="black" points="316.5,-406.5 316.5,-427.5 428.5,-427.5 428.5,-406.5 316.5,-406.5"/>
<text text-anchor="start" x="321.5" y="-414.5" font-family="Helvetica,sans-Serif" font-size="10.00">latitud</text>
<polygon fill="none" stroke="black" points="428.5,-406.5 428.5,-427.5 513.5,-427.5 513.5,-406.5 428.5,-406.5"/>
<text text-anchor="start" x="433.5" y="-414.5" font-family="Helvetica,sans-Serif" font-size="10.00">REAL</text>
<polygon fill="none" stroke="black" points="316.5,-385.5 316.5,-406.5 428.5,-406.5 428.5,-385.5 316.5,-385.5"/>
<text text-anchor="start" x="321.5" y="-393.5" font-family="Helvetica,sans-Serif" font-size="10.00">longitud</text>
<polygon fill="none" stroke="black" points="428.5,-385.5 428.5,-406.5 513.5,-406.5 513.5,-385.5 428.5,-385.5"/>
<text text-anchor="start" x="433.5" y="-393.5" font-family="Helvetica,sans-Serif" font-size="10.00">REAL</text>
<polygon fill="none" stroke="black" points="316.5,-364.5 316.5,-385.5 428.5,-385.5 428.5,-364.5 316.5,-364.5"/>
<text text-anchor="start" x="321.5" y="-372.5" font-family="Helvetica,sans-Serif" font-size="10.00">codigo_dane</text>
<polygon fill="none" stroke="black" points="428.5,-364.5 428.5,-385.5 513.5,-385.5 513.5,-364.5 428.5,-364.5"/>
<text text-anchor="start" x="433.5" y="-372.5" font-family="Helvetica,sans-Serif" font-size="10.00">TEXT (UNIQUE)</text>
</g>
<!-- departamentos&#45;&gt;municipios -->
<g id="edge1" class="edge">
<title>departamentos&#45;&gt;municipios</title>
<path fill="none" stroke="black" d="M214.12,-438.5C214.12,-438.5 299.77,-438.5 299.77,-438.5"/>
<polygon fill="black" stroke="black" points="299.77,-438.5 307.77,-442.1 303.77,-438.5 307.77,-438.5 307.77,-438.5 307.77,-438.5 303.77,-438.5 307.77,-434.9 299.77,-438.5 299.77,-438.5"/>
<text text-anchor="middle" x="261" y="-441.3" font-family="Helvetica,sans-Serif" font-size="9.00">1 : N</text>
</g>
<!-- mediciones_nasa -->
<g id="node3" class="node">
<title>mediciones_nasa</title>
<polygon fill="#2e7d32" stroke="transparent" points="623.5,-537.5 623.5,-558.5 824.5,-558.5 824.5,-537.5 623.5,-537.5"/>
<polygon fill="none" stroke="black" points="623.5,-537.5 623.5,-558.5 824.5,-558.5 824.5,-537.5 623.5,-537.5"/>
<text text-anchor="start" x="675.5" y="-546.5" font-family="Helvetica,sans-Serif" font-weight="bold" font-size="10.00" fill="white">mediciones_nasa</text>
<polygon fill="none" stroke="black" points="623.5,-516.5 623.5,-537.5 722.5,-537.5 722.5,-516.5 623.5,-516.5"/>
<text text-anchor="start" x="628.5" y="-525.5" font-family="Helvetica,sans-Serif" font-weight="bold" font-size="10.00">PK</text>
<text text-anchor="start" x="644.5" y="-525.5" font-family="Helvetica,sans-Serif" font-size="10.00"> id_medicion</text>
<polygon fill="none" stroke="black" points="722.5,-516.5 722.5,-537.5 824.5,-537.5 824.5,-516.5 722.5,-516.5"/>
<text text-anchor="start" x="727.5" y="-524.5" font-family="Helvetica,sans-Serif" font-size="10.00">INTEGER</text>
<polygon fill="none" stroke="black" points="623.5,-495.5 623.5,-516.5 722.5,-516.5 722.5,-495.5 623.5,-495.5"/>
<text text-anchor="start" x="628.5" y="-504.5" font-family="Helvetica,sans-Serif" font-weight="bold" font-size="10.00">FK</text>
<text text-anchor="start" x="643.5" y="-504.5" font-family="Helvetica,sans-Serif" font-size="10.00"> id_municipio</text>
<polygon fill="none" stroke="black" points="722.5,-495.5 722.5,-516.5 824.5,-516.5 824.5,-495.5 722.5,-495.5"/>
<text text-anchor="start" x="727.5" y="-503.5" font-family="Helvetica,sans-Serif" font-size="10.00">INTEGER</text>
<polygon fill="none" stroke="black" points="623.5,-474.5 623.5,-495.5 722.5,-495.5 722.5,-474.5 623.5,-474.5"/>
<text text-anchor="start" x="628.5" y="-482.5" font-family="Helvetica,sans-Serif" font-size="10.00">fecha</text>
<polygon fill="none" stroke="black" points="722.5,-474.5 722.5,-495.5 824.5,-495.5 824.5,-474.5 722.5,-474.5"/>
<text text-anchor="start" x="727.5" y="-482.5" font-family="Helvetica,sans-Serif" font-size="10.00">DATE</text>
<polygon fill="none" stroke="black" points="623.5,-453.5 623.5,-474.5 722.5,-474.5 722.5,-453.5 623.5,-453.5"/>
<text text-anchor="start" x="628.5" y="-461.5" font-family="Helvetica,sans-Serif" font-size="10.00">irradiancia_global</text>
<polygon fill="none" stroke="black" points="722.5,-453.5 722.5,-474.5 824.5,-474.5 824.5,-453.5 722.5,-453.5"/>
<text text-anchor="start" x="727.5" y="-461.5" font-family="Helvetica,sans-Serif" font-size="10.00">REAL (kWh/m²/día)</text>
<polygon fill="none" stroke="black" points="623.5,-432.5 623.5,-453.5 722.5,-453.5 722.5,-432.5 623.5,-432.5"/>
<text text-anchor="start" x="628.5" y="-440.5" font-family="Helvetica,sans-Serif" font-size="10.00">temperatura_2m</text>
<polygon fill="none" stroke="black" points="722.5,-432.5 722.5,-453.5 824.5,-453.5 824.5,-432.5 722.5,-432.5"/>
<text text-anchor="start" x="727.5" y="-440.5" font-family="Helvetica,sans-Serif" font-size="10.00">REAL (°C)</text>
<polygon fill="none" stroke="black" points="623.5,-411.5 623.5,-432.5 722.5,-432.5 722.5,-411.5 623.5,-411.5"/>
<text text-anchor="start" x="628.5" y="-419.5" font-family="Helvetica,sans-Serif" font-size="10.00">humedad_relativa</text>
<polygon fill="none" stroke="black" points="722.5,-411.5 722.5,-432.5 824.5,-432.5 824.5,-411.5 722.5,-411.5"/>
<text text-anchor="start" x="727.5" y="-419.5" font-family="Helvetica,sans-Serif" font-size="10.00">REAL (%)</text>
<polygon fill="none" stroke="black" points="623.5,-390.5 623.5,-411.5 722.5,-411.5 722.5,-390.5 623.5,-390.5"/>
<text text-anchor="start" x="628.5" y="-398.5" font-family="Helvetica,sans-Serif" font-size="10.00">velocidad_viento</text>
<polygon fill="none" stroke="black" points="722.5,-390.5 722.5,-411.5 824.5,-411.5 824.5,-390.5 722.5,-390.5"/>
<text text-anchor="start" x="727.5" y="-398.5" font-family="Helvetica,sans-Serif" font-size="10.00">REAL (m/s)</text>
<polygon fill="none" stroke="black" points="623.5,-369.5 623.5,-390.5 722.5,-390.5 722.5,-369.5 623.5,-369.5"/>
<text text-anchor="start" x="628.5" y="-377.5" font-family="Helvetica,sans-Serif" font-size="10.00">precipitacion</text>
<polygon fill="none" stroke="black" points="722.5,-369.5 722.5,-390.5 824.5,-390.5 824.5,-369.5 722.5,-369.5"/>
<text text-anchor="start" x="727.5" y="-377.5" font-family="Helvetica,sans-Serif" font-size="10.00">REAL (mm/día)</text>
<polygon fill="none" stroke="black" points="623.5,-348.5 623.5,-369.5 824.5,-369.5 824.5,-348.5 623.5,-348.5"/>
<text text-anchor="start" x="628.5" y="-357.5" font-family="Helvetica,sans-Serif" font-style="italic" font-size="10.00">UNIQUE (id_municipio, fecha)</text>
</g>
<!-- municipios&#45;&gt;mediciones_nasa -->
<g id="edge2" class="edge">
<title>municipios&#45;&gt;mediciones_nasa</title>
<path fill="none" stroke="black" d="M521.27,-438.5C521.27,-438.5 606.89,-438.5 606.89,-438.5"/>
<polygon fill="black" stroke="black" points="606.89,-438.5 614.89,-442.1 610.89,-438.5 614.89,-438.5 614.89,-438.5 614.89,-438.5 610.89,-438.5 614.89,-434.9 606.89,-438.5 606.89,-438.5"/>
<text text-anchor="middle" x="568" y="-456.3" font-family="Helvetica,sans-Serif" font-size="9.00">1 : N</text>
</g>
<!-- proyectos_upme -->
<g id="node4" class="node">
<title>proyectos_upme</title>
<polygon fill="#c62828" stroke="transparent" points="629.5,-275.5 629.5,-296.5 818.5,-296.5 818.5,-275.5 629.5,-275.5"/>
<polygon fill="none" stroke="black" points="629.5,-275.5 629.5,-296.5 818.5,-296.5 818.5,-275.5 629.5,-275.5"/>
<text text-anchor="start" x="677" y="-284.5" font-family="Helvetica,sans-Serif" font-weight="bold" font-size="10.00" fill="white">proyectos_upme</text>
<polygon fill="none" stroke="black" points="629.5,-254.5 629.5,-275.5 765.5,-275.5 765.5,-254.5 629.5,-254.5"/>
<text text-anchor="start" x="634.5" y="-263.5" font-family="Helvetica,sans-Serif" font-weight="bold" font-size="10.00">PK</text>
<text text-anchor="start" x="650.5" y="-263.5" font-family="Helvetica,sans-Serif" font-size="10.00"> codigo_proyecto</text>
<polygon fill="none" stroke="black" points="765.5,-254.5 765.5,-275.5 818.5,-275.5 818.5,-254.5 765.5,-254.5"/>
<text text-anchor="start" x="770.5" y="-262.5" font-family="Helvetica,sans-Serif" font-size="10.00">INTEGER</text>
<polygon fill="none" stroke="black" points="629.5,-233.5 629.5,-254.5 765.5,-254.5 765.5,-233.5 629.5,-233.5"/>
<text text-anchor="start" x="634.5" y="-241.5" font-family="Helvetica,sans-Serif" font-size="10.00">nombre</text>
<polygon fill="none" stroke="black" points="765.5,-233.5 765.5,-254.5 818.5,-254.5 818.5,-233.5 765.5,-233.5"/>
<text text-anchor="start" x="770.5" y="-241.5" font-family="Helvetica,sans-Serif" font-size="10.00">TEXT</text>
<polygon fill="none" stroke="black" points="629.5,-212.5 629.5,-233.5 765.5,-233.5 765.5,-212.5 629.5,-212.5"/>
<text text-anchor="start" x="634.5" y="-220.5" font-family="Helvetica,sans-Serif" font-size="10.00">marco_normativo</text>
<polygon fill="none" stroke="black" points="765.5,-212.5 765.5,-233.5 818.5,-233.5 818.5,-212.5 765.5,-212.5"/>
<text text-anchor="start" x="770.5" y="-220.5" font-family="Helvetica,sans-Serif" font-size="10.00">TEXT</text>
<polygon fill="none" stroke="black" points="629.5,-191.5 629.5,-212.5 765.5,-212.5 765.5,-191.5 629.5,-191.5"/>
<text text-anchor="start" x="634.5" y="-199.5" font-family="Helvetica,sans-Serif" font-size="10.00">fecha_inscripcion</text>
<polygon fill="none" stroke="black" points="765.5,-191.5 765.5,-212.5 818.5,-212.5 818.5,-191.5 765.5,-191.5"/>
<text text-anchor="start" x="770.5" y="-199.5" font-family="Helvetica,sans-Serif" font-size="10.00">DATE</text>
<polygon fill="none" stroke="black" points="629.5,-170.5 629.5,-191.5 765.5,-191.5 765.5,-170.5 629.5,-170.5"/>
<text text-anchor="start" x="634.5" y="-178.5" font-family="Helvetica,sans-Serif" font-size="10.00">fecha_validez</text>
<polygon fill="none" stroke="black" points="765.5,-170.5 765.5,-191.5 818.5,-191.5 818.5,-170.5 765.5,-170.5"/>
<text text-anchor="start" x="770.5" y="-178.5" font-family="Helvetica,sans-Serif" font-size="10.00">DATE</text>
<polygon fill="none" stroke="black" points="629.5,-149.5 629.5,-170.5 765.5,-170.5 765.5,-149.5 629.5,-149.5"/>
<text text-anchor="start" x="634.5" y="-158.5" font-family="Helvetica,sans-Serif" font-weight="bold" font-size="10.00">FK</text>
<text text-anchor="start" x="649.5" y="-158.5" font-family="Helvetica,sans-Serif" font-size="10.00"> id_estado</text>
<polygon fill="none" stroke="black" points="765.5,-149.5 765.5,-170.5 818.5,-170.5 818.5,-149.5 765.5,-149.5"/>
<text text-anchor="start" x="770.5" y="-157.5" font-family="Helvetica,sans-Serif" font-size="10.00">INTEGER</text>
<polygon fill="none" stroke="black" points="629.5,-128.5 629.5,-149.5 765.5,-149.5 765.5,-128.5 629.5,-128.5"/>
<text text-anchor="start" x="634.5" y="-137.5" font-family="Helvetica,sans-Serif" font-weight="bold" font-size="10.00">FK</text>
<text text-anchor="start" x="649.5" y="-137.5" font-family="Helvetica,sans-Serif" font-size="10.00"> id_recurso</text>
<polygon fill="none" stroke="black" points="765.5,-128.5 765.5,-149.5 818.5,-149.5 818.5,-128.5 765.5,-128.5"/>
<text text-anchor="start" x="770.5" y="-136.5" font-family="Helvetica,sans-Serif" font-size="10.00">INTEGER</text>
<polygon fill="none" stroke="black" points="629.5,-107.5 629.5,-128.5 765.5,-128.5 765.5,-107.5 629.5,-107.5"/>
<text text-anchor="start" x="634.5" y="-116.5" font-family="Helvetica,sans-Serif" font-weight="bold" font-size="10.00">FK</text>
<text text-anchor="start" x="649.5" y="-116.5" font-family="Helvetica,sans-Serif" font-size="10.00"> id_tecnologia</text>
<polygon fill="none" stroke="black" points="765.5,-107.5 765.5,-128.5 818.5,-128.5 818.5,-107.5 765.5,-107.5"/>
<text text-anchor="start" x="770.5" y="-115.5" font-family="Helvetica,sans-Serif" font-size="10.00">INTEGER</text>
<polygon fill="none" stroke="black" points="629.5,-86.5 629.5,-107.5 765.5,-107.5 765.5,-86.5 629.5,-86.5"/>
<text text-anchor="start" x="634.5" y="-94.5" font-family="Helvetica,sans-Serif" font-size="10.00">capacidad_mw</text>
<polygon fill="none" stroke="black" points="765.5,-86.5 765.5,-107.5 818.5,-107.5 818.5,-86.5 765.5,-86.5"/>
<text text-anchor="start" x="770.5" y="-94.5" font-family="Helvetica,sans-Serif" font-size="10.00">REAL</text>
<polygon fill="none" stroke="black" points="629.5,-65.5 629.5,-86.5 765.5,-86.5 765.5,-65.5 629.5,-65.5"/>
<text text-anchor="start" x="634.5" y="-74.5" font-family="Helvetica,sans-Serif" font-weight="bold" font-size="10.00">FK</text>
<text text-anchor="start" x="649.5" y="-74.5" font-family="Helvetica,sans-Serif" font-size="10.00"> id_municipio</text>
<polygon fill="none" stroke="black" points="765.5,-65.5 765.5,-86.5 818.5,-86.5 818.5,-65.5 765.5,-65.5"/>
<text text-anchor="start" x="770.5" y="-73.5" font-family="Helvetica,sans-Serif" font-size="10.00">INTEGER</text>
<polygon fill="none" stroke="black" points="629.5,-44.5 629.5,-65.5 765.5,-65.5 765.5,-44.5 629.5,-44.5"/>
<text text-anchor="start" x="634.5" y="-52.5" font-family="Helvetica,sans-Serif" font-size="10.00">fecha_inicio_construccion</text>
<polygon fill="none" stroke="black" points="765.5,-44.5 765.5,-65.5 818.5,-65.5 818.5,-44.5 765.5,-44.5"/>
<text text-anchor="start" x="770.5" y="-52.5" font-family="Helvetica,sans-Serif" font-size="10.00">DATE</text>
<polygon fill="none" stroke="black" points="629.5,-23.5 629.5,-44.5 765.5,-44.5 765.5,-23.5 629.5,-23.5"/>
<text text-anchor="start" x="634.5" y="-31.5" font-family="Helvetica,sans-Serif" font-size="10.00">fecha_entrada_operacion</text>
<polygon fill="none" stroke="black" points="765.5,-23.5 765.5,-44.5 818.5,-44.5 818.5,-23.5 765.5,-23.5"/>
<text text-anchor="start" x="770.5" y="-31.5" font-family="Helvetica,sans-Serif" font-size="10.00">DATE</text>
</g>
<!-- municipios&#45;&gt;proyectos_upme -->
<g id="edge3" class="edge">
<title>municipios&#45;&gt;proyectos_upme</title>
<path fill="none" stroke="black" d="M513,-360.66C513,-322.86 513,-285.5 513,-285.5 513,-285.5 612.72,-285.5 612.72,-285.5"/>
<polygon fill="black" stroke="black" points="612.72,-285.5 620.72,-289.1 616.72,-285.5 620.72,-285.5 620.72,-285.5 620.72,-285.5 616.72,-285.5 620.72,-281.9 612.72,-285.5 612.72,-285.5"/>
<text text-anchor="middle" x="568" y="-382.3" font-family="Helvetica,sans-Serif" font-size="9.00">1 : N</text>
</g>
<!-- recursos -->
<g id="node5" class="node">
<title>recursos</title>
<polygon fill="#6a1b9a" stroke="transparent" points="25,-284.5 25,-305.5 190,-305.5 190,-284.5 25,-284.5"/>
<polygon fill="none" stroke="black" points="25,-284.5 25,-305.5 190,-305.5 190,-284.5 25,-284.5"/>
<text text-anchor="start" x="83" y="-293.5" font-family="Helvetica,sans-Serif" font-weight="bold" font-size="10.00" fill="white">recursos</text>
<polygon fill="none" stroke="black" points="25,-263.5 25,-284.5 105,-284.5 105,-263.5 25,-263.5"/>
<text text-anchor="start" x="30" y="-272.5" font-family="Helvetica,sans-Serif" font-weight="bold" font-size="10.00">PK</text>
<text text-anchor="start" x="46" y="-272.5" font-family="Helvetica,sans-Serif" font-size="10.00"> id_recurso</text>
<polygon fill="none" stroke="black" points="105,-263.5 105,-284.5 190,-284.5 190,-263.5 105,-263.5"/>
<text text-anchor="start" x="110" y="-271.5" font-family="Helvetica,sans-Serif" font-size="10.00">INTEGER</text>
<polygon fill="none" stroke="black" points="25,-242.5 25,-263.5 105,-263.5 105,-242.5 25,-242.5"/>
<text text-anchor="start" x="30" y="-250.5" font-family="Helvetica,sans-Serif" font-size="10.00">nombre</text>
<polygon fill="none" stroke="black" points="105,-242.5 105,-263.5 190,-263.5 190,-242.5 105,-242.5"/>
<text text-anchor="start" x="110" y="-250.5" font-family="Helvetica,sans-Serif" font-size="10.00">TEXT (UNIQUE)</text>
</g>
<!-- recursos&#45;&gt;proyectos_upme -->
<g id="edge5" class="edge">
<title>recursos&#45;&gt;proyectos_upme</title>
<path fill="none" stroke="black" d="M197.64,-270C197.64,-270 612.99,-270 612.99,-270"/>
<polygon fill="black" stroke="black" points="612.99,-270 620.99,-273.6 616.99,-270 620.99,-270 620.99,-270 620.99,-270 616.99,-270 620.99,-266.4 612.99,-270 612.99,-270"/>
<text text-anchor="middle" x="414.5" y="-295.3" font-family="Helvetica,sans-Serif" font-size="9.00">1 : N</text>
</g>
<!-- tecnologias -->
<g id="node6" class="node">
<title>tecnologias</title>
<polygon fill="#6a1b9a" stroke="transparent" points="340.5,-181.5 340.5,-202.5 488.5,-202.5 488.5,-181.5 340.5,-181.5"/>
<polygon fill="none" stroke="black" points="340.5,-181.5 340.5,-202.5 488.5,-202.5 488.5,-181.5 340.5,-181.5"/>
<text text-anchor="start" x="381.5" y="-190.5" font-family="Helvetica,sans-Serif" font-weight="bold" font-size="10.00" fill="white">tecnologias</text>
<polygon fill="none" stroke="black" points="340.5,-160.5 340.5,-181.5 435.5,-181.5 435.5,-160.5 340.5,-160.5"/>
<text text-anchor="start" x="345.5" y="-169.5" font-family="Helvetica,sans-Serif" font-weight="bold" font-size="10.00">PK</text>
<text text-anchor="start" x="361.5" y="-169.5" font-family="Helvetica,sans-Serif" font-size="10.00"> id_tecnologia</text>
<polygon fill="none" stroke="black" points="435.5,-160.5 435.5,-181.5 488.5,-181.5 488.5,-160.5 435.5,-160.5"/>
<text text-anchor="start" x="440.5" y="-168.5" font-family="Helvetica,sans-Serif" font-size="10.00">INTEGER</text>
<polygon fill="none" stroke="black" points="340.5,-139.5 340.5,-160.5 435.5,-160.5 435.5,-139.5 340.5,-139.5"/>
<text text-anchor="start" x="345.5" y="-147.5" font-family="Helvetica,sans-Serif" font-size="10.00">nombre</text>
<polygon fill="none" stroke="black" points="435.5,-139.5 435.5,-160.5 488.5,-160.5 488.5,-139.5 435.5,-139.5"/>
<text text-anchor="start" x="440.5" y="-147.5" font-family="Helvetica,sans-Serif" font-size="10.00">TEXT</text>
<polygon fill="none" stroke="black" points="340.5,-118.5 340.5,-139.5 435.5,-139.5 435.5,-118.5 340.5,-118.5"/>
<text text-anchor="start" x="345.5" y="-127.5" font-family="Helvetica,sans-Serif" font-weight="bold" font-size="10.00">FK</text>
<text text-anchor="start" x="360.5" y="-127.5" font-family="Helvetica,sans-Serif" font-size="10.00"> id_recurso</text>
<polygon fill="none" stroke="black" points="435.5,-118.5 435.5,-139.5 488.5,-139.5 488.5,-118.5 435.5,-118.5"/>
<text text-anchor="start" x="440.5" y="-126.5" font-family="Helvetica,sans-Serif" font-size="10.00">INTEGER</text>
</g>
<!-- recursos&#45;&gt;tecnologias -->
<g id="edge4" class="edge">
<title>recursos&#45;&gt;tecnologias</title>
<path fill="none" stroke="black" d="M197.74,-254.5C288.6,-254.5 415,-254.5 415,-254.5 415,-254.5 415,-214.67 415,-214.67"/>
<polygon fill="black" stroke="black" points="415,-214.67 418.6,-206.67 415,-210.67 415,-206.67 415,-206.67 415,-206.67 415,-210.67 411.4,-206.67 415,-214.67 415,-214.67"/>
<text text-anchor="middle" x="261" y="-211.3" font-family="Helvetica,sans-Serif" font-size="9.00">1 : N</text>
</g>
<!-- tecnologias&#45;&gt;proyectos_upme -->
<g id="edge6" class="edge">
<title>tecnologias&#45;&gt;proyectos_upme</title>
<path fill="none" stroke="black" d="M496.9,-160.5C496.9,-160.5 612.88,-160.5 612.88,-160.5"/>
<polygon fill="black" stroke="black" points="612.88,-160.5 620.88,-164.1 616.88,-160.5 620.88,-160.5 620.88,-160.5 620.88,-160.5 616.88,-160.5 620.88,-156.9 612.88,-160.5 612.88,-160.5"/>
<text text-anchor="middle" x="568" y="-163.3" font-family="Helvetica,sans-Serif" font-size="9.00">1 : N</text>
</g>
<!-- estados_proyecto -->
<g id="node7" class="node">
<title>estados_proyecto</title>
<polygon fill="#6a1b9a" stroke="transparent" points="333.5,-45.5 333.5,-66.5 495.5,-66.5 495.5,-45.5 333.5,-45.5"/>
<polygon fill="none" stroke="black" points="333.5,-45.5 333.5,-66.5 495.5,-66.5 495.5,-45.5 333.5,-45.5"/>
<text text-anchor="start" x="364.5" y="-54.5" font-family="Helvetica,sans-Serif" font-weight="bold" font-size="10.00" fill="white">estados_proyecto</text>
<polygon fill="none" stroke="black" points="333.5,-24.5 333.5,-45.5 410.5,-45.5 410.5,-24.5 333.5,-24.5"/>
<text text-anchor="start" x="338.5" y="-33.5" font-family="Helvetica,sans-Serif" font-weight="bold" font-size="10.00">PK</text>
<text text-anchor="start" x="354.5" y="-33.5" font-family="Helvetica,sans-Serif" font-size="10.00"> id_estado</text>
<polygon fill="none" stroke="black" points="410.5,-24.5 410.5,-45.5 495.5,-45.5 495.5,-24.5 410.5,-24.5"/>
<text text-anchor="start" x="415.5" y="-32.5" font-family="Helvetica,sans-Serif" font-size="10.00">INTEGER</text>
<polygon fill="none" stroke="black" points="333.5,-3.5 333.5,-24.5 410.5,-24.5 410.5,-3.5 333.5,-3.5"/>
<text text-anchor="start" x="338.5" y="-11.5" font-family="Helvetica,sans-Serif" font-size="10.00">nombre</text>
<polygon fill="none" stroke="black" points="410.5,-3.5 410.5,-24.5 495.5,-24.5 495.5,-3.5 410.5,-3.5"/>
<text text-anchor="start" x="415.5" y="-11.5" font-family="Helvetica,sans-Serif" font-size="10.00">TEXT (UNIQUE)</text>
</g>
<!-- estados_proyecto&#45;&gt;proyectos_upme -->
<g id="edge7" class="edge">
<title>estados_proyecto&#45;&gt;proyectos_upme</title>
<path fill="none" stroke="black" d="M503.88,-45.5C503.88,-45.5 612.99,-45.5 612.99,-45.5"/>
<polygon fill="black" stroke="black" points="612.99,-45.5 620.99,-49.1 616.99,-45.5 620.99,-45.5 620.99,-45.5 620.99,-45.5 616.99,-45.5 620.99,-41.9 612.99,-45.5 612.99,-45.5"/>
<text text-anchor="middle" x="568" y="-38.3" font-family="Helvetica,sans-Serif" font-size="9.00">1 : N</text>
</g>
</g>
</svg>
